<svg width="112" height="112" viewBox="0 0 112 112" fill="none" xmlns="http://www.w3.org/2000/svg">
<rect width="112" height="112" rx="56" fill="white"/>
<rect width="112" height="112" rx="56" stroke="#E2E2E2"/>
<path d="M70.625 66.2631C73.4262 65.1663 76.25 62.6669 76.25 57.625C76.25 50.125 70.0006 48.25 66.875 48.25C66.875 44.5 66.875 37 55.625 37C44.375 37 44.375 44.5 44.375 48.25C41.2494 48.25 35 50.125 35 57.625C35 62.6669 37.8238 65.1663 40.625 66.2631" stroke="#1E3A8A" stroke-width="2.5" stroke-linecap="round" stroke-linejoin="round"/>
<path d="M47.3359 69.7881L50.6509 73.1031C51.3474 73.7996 52.1742 74.3521 53.0842 74.729C53.9941 75.1059 54.9694 75.2999 55.9544 75.2999C56.9393 75.2999 57.9146 75.1059 58.8246 74.729C59.7346 74.3521 60.5614 73.7996 61.2578 73.1031L61.9216 72.4412" stroke="#10B981" stroke-width="2.5" stroke-linecap="round" stroke-linejoin="round"/>
<path d="M47.9978 74.429L47.3359 69.7883L51.9747 70.4521L47.9978 74.429Z" stroke="#10B981" stroke-width="2.5" stroke-linecap="round" stroke-linejoin="round"/>
<path d="M63.6853 64.9415L60.3703 61.6265C59.6739 60.93 58.8471 60.3776 57.9371 60.0006C57.0271 59.6237 56.0518 59.4297 55.0669 59.4297C54.0819 59.4297 53.1066 59.6237 52.1967 60.0006C51.2867 60.3776 50.4599 60.93 49.7634 61.6265L49.1016 62.2884" stroke="#10B981" stroke-width="2.5" stroke-linecap="round" stroke-linejoin="round"/>
<path d="M63.0256 60.3005L63.6875 64.9412L59.0469 64.2774L63.0256 60.3005Z" stroke="#10B981" stroke-width="2.5" stroke-linecap="round" stroke-linejoin="round"/>
</svg>
