<svg width="112" height="112" viewBox="0 0 112 112" fill="none" xmlns="http://www.w3.org/2000/svg">
<rect width="112" height="112" rx="56" fill="white"/>
<rect width="112" height="112" rx="56" stroke="#E2E2E2"/>
<path d="M42.625 63.25L52 57.625M59.5 53.875L68.875 48.25M55.75 42.625V52M55.75 59.5V68.875M42.625 48.25L52 53.875M59.5 57.625L68.875 63.25M71.6875 50.125V60.4375M58.5625 71.6875L68.875 66.0625M41.6875 66.0625L52.9375 71.6875M39.8125 61.375V50.125M41.6875 45.4375L52.9375 39.8125M69.8125 45.4375L58.5625 39.8125" stroke="#1E3A8A" stroke-width="2" stroke-linecap="round" stroke-linejoin="round"/>
<path d="M55.75 42.625C57.3033 42.625 58.5625 41.3658 58.5625 39.8125C58.5625 38.2592 57.3033 37 55.75 37C54.1967 37 52.9375 38.2592 52.9375 39.8125C52.9375 41.3658 54.1967 42.625 55.75 42.625Z" stroke="#10B981" stroke-width="2" stroke-linecap="round" stroke-linejoin="round"/>
<path d="M55.75 74.5C57.3033 74.5 58.5625 73.2408 58.5625 71.6875C58.5625 70.1342 57.3033 68.875 55.75 68.875C54.1967 68.875 52.9375 70.1342 52.9375 71.6875C52.9375 73.2408 54.1967 74.5 55.75 74.5Z" stroke="#10B981" stroke-width="2" stroke-linecap="round" stroke-linejoin="round"/>
<path d="M39.8125 50.125C41.3658 50.125 42.625 48.8658 42.625 47.3125C42.625 45.7592 41.3658 44.5 39.8125 44.5C38.2592 44.5 37 45.7592 37 47.3125C37 48.8658 38.2592 50.125 39.8125 50.125Z" stroke="#10B981" stroke-width="2" stroke-linecap="round" stroke-linejoin="round"/>
<path d="M71.6875 50.125C73.2408 50.125 74.5 48.8658 74.5 47.3125C74.5 45.7592 73.2408 44.5 71.6875 44.5C70.1342 44.5 68.875 45.7592 68.875 47.3125C68.875 48.8658 70.1342 50.125 71.6875 50.125Z" stroke="#10B981" stroke-width="2" stroke-linecap="round" stroke-linejoin="round"/>
<path d="M71.6875 67C73.2408 67 74.5 65.7408 74.5 64.1875C74.5 62.6342 73.2408 61.375 71.6875 61.375C70.1342 61.375 68.875 62.6342 68.875 64.1875C68.875 65.7408 70.1342 67 71.6875 67Z" stroke="#10B981" stroke-width="2" stroke-linecap="round" stroke-linejoin="round"/>
<path d="M39.8125 67C41.3658 67 42.625 65.7408 42.625 64.1875C42.625 62.6342 41.3658 61.375 39.8125 61.375C38.2592 61.375 37 62.6342 37 64.1875C37 65.7408 38.2592 67 39.8125 67Z" stroke="#10B981" stroke-width="2" stroke-linecap="round" stroke-linejoin="round"/>
<path d="M55.75 51.5312L59.5 53.6406V57.8594L55.75 59.9688L52 57.8594V53.6406L55.75 51.5312Z" stroke="#10B981" stroke-width="2" stroke-linecap="round" stroke-linejoin="round"/>
</svg>
