<svg width="132" height="132" viewBox="0 0 132 132" fill="none" xmlns="http://www.w3.org/2000/svg">
<rect x="10" y="10" width="112" height="112" rx="56" fill="white"/>
<rect x="10" y="10" width="112" height="112" rx="56" stroke="#E2E2E2"/>
<path d="M65.875 45.6504C70.7627 45.6504 74.7246 49.6123 74.7246 54.5C74.7246 59.3877 70.7627 63.3496 65.875 63.3496C60.9873 63.3496 57.0254 59.3877 57.0254 54.5C57.0254 49.6123 60.9873 45.6504 65.875 45.6504Z" stroke="#10B981" stroke-width="2.7" stroke-linecap="round" stroke-linejoin="round"/>
<mask id="path-3-outside-1_510_144" maskUnits="userSpaceOnUse" x="46" y="64.625" width="40" height="23" fill="black">
<rect fill="white" x="46" y="64.625" width="40" height="23"/>
<path d="M82.75 84.5C82.75 75.1803 75.1947 67.625 65.875 67.625C56.5553 67.625 49 75.1803 49 84.5"/>
</mask>
<path d="M80.05 84.5C80.05 85.9912 81.2588 87.2 82.75 87.2C84.2412 87.2 85.45 85.9912 85.45 84.5H80.05ZM46.3 84.5C46.3 85.9912 47.5088 87.2 49 87.2C50.4912 87.2 51.7 85.9912 51.7 84.5H46.3ZM82.75 84.5H85.45C85.45 73.6891 76.6859 64.925 65.875 64.925V67.625V70.325C73.7035 70.325 80.05 76.6715 80.05 84.5H82.75ZM65.875 67.625V64.925C55.0641 64.925 46.3 73.6891 46.3 84.5H49H51.7C51.7 76.6715 58.0465 70.325 65.875 70.325V67.625Z" fill="#1E3A8A" mask="url(#path-3-outside-1_510_144)"/>
<path d="M65.875 66.2754C66.4675 66.2754 66.9906 66.6614 67.165 67.2275L70.915 79.415C71.0464 79.8421 70.9578 80.3074 70.6787 80.6562L66.9287 85.3438C66.6725 85.6637 66.2849 85.8496 65.875 85.8496C65.4651 85.8496 65.0775 85.6637 64.8213 85.3438L61.0713 80.6562C60.7922 80.3074 60.7036 79.8421 60.835 79.415L64.585 67.2275L64.6211 67.124C64.8243 66.6147 65.3193 66.2754 65.875 66.2754Z" stroke="#1E3A8A" stroke-width="2.7" stroke-linecap="round" stroke-linejoin="round"/>
</svg>
