<svg width="112" height="112" viewBox="0 0 112 112" fill="none" xmlns="http://www.w3.org/2000/svg">
<rect width="112" height="112" rx="56" fill="white"/>
<rect width="112" height="112" rx="56" stroke="#E2E2E2"/>
<path d="M66.75 34C63.0277 34 60 37.0277 60 40.75C60 44.4723 63.0277 47.5 66.75 47.5C70.4723 47.5 73.5 44.4723 73.5 40.75C73.5 37.0277 70.4723 34 66.75 34ZM66.75 45.25C64.2652 45.25 62.25 43.2355 62.25 40.75C62.25 38.2645 64.2652 36.25 66.75 36.25C69.2355 36.25 71.25 38.2645 71.25 40.75C71.25 43.2355 69.2355 45.25 66.75 45.25Z" fill="#1E3A8A"/>
<path d="M60.0135 77.1085L59.883 75.4683C57.8273 76.2865 55.5938 76.75 53.25 76.75C43.3245 76.75 35.25 68.6755 35.25 58.75C35.25 48.8245 43.3245 40.75 53.25 40.75C54.828 40.75 56.352 40.975 57.8115 41.3583C57.7973 41.1535 57.75 40.9586 57.75 40.75C57.75 40.1718 57.816 39.6108 57.9202 39.0633C56.4187 38.7078 54.8602 38.5 53.25 38.5C42.066 38.5 33 47.566 33 58.75C33 69.934 42.066 79 53.25 79C55.6702 79 57.981 78.5538 60.1327 77.7745C60.081 77.5562 60.0323 77.3373 60.0135 77.1085Z" fill="#10B981"/>
<path d="M75.7503 62.575H75.4601L73.4642 51.598C73.2692 50.5277 72.3377 49.75 71.2503 49.75H62.2503C61.1635 49.75 60.2312 50.5277 60.0363 51.598L57.7863 63.973C57.667 64.6293 57.8448 65.305 58.2723 65.8172C58.7006 66.3287 59.3328 66.6249 60.0004 66.6249H61.4381L62.2578 76.9284C62.3507 78.0977 63.3273 79 64.5003 79H69.0003C70.174 79 71.1505 78.0977 71.2428 76.9285L71.6155 72.25H75.7503C76.993 72.25 78.0003 71.2428 78.0003 70V64.825C78.0003 63.5822 76.993 62.575 75.7503 62.575ZM69.0003 76.75H64.5003L63.5155 64.375H60.0003L62.2503 52H65.6253V58.8445C65.6253 59.4662 66.1285 59.9695 66.7503 59.9695C67.372 59.9695 67.8753 59.4662 67.8753 58.8445V52H71.2503L73.1725 62.575H68.5503C67.3075 62.575 66.3003 63.5822 66.3003 64.825V70C66.3003 71.2428 67.3075 72.25 68.5503 72.25H69.358L69.0003 76.75ZM75.7503 70H68.5503V64.825H75.7503V70Z" fill="#1E3A8A"/>
<path d="M54.375 55.5813V43H52.125V55.5813C51.171 55.9211 50.421 56.6702 50.0813 57.625H42V59.875H50.0813C50.5462 61.183 51.7822 62.125 53.25 62.125C55.1137 62.125 56.625 60.6137 56.625 58.75C56.625 57.283 55.683 56.0462 54.375 55.5813ZM53.25 59.875C52.6298 59.875 52.125 59.3702 52.125 58.75C52.125 58.1298 52.6298 57.625 53.25 57.625C53.8702 57.625 54.375 58.1298 54.375 58.75C54.375 59.3702 53.8702 59.875 53.25 59.875Z" fill="#10B981"/>
</svg>
