<svg width="112" height="112" viewBox="0 0 112 112" fill="none" xmlns="http://www.w3.org/2000/svg">
<circle cx="56" cy="56" r="56" fill="white"/>
<circle cx="56" cy="56" r="56" stroke="#E2E2E2"/>
<path d="M36 55.75C36 56.4959 36.2963 57.2113 36.8238 57.7387C37.3512 58.2662 38.0666 58.5625 38.8125 58.5625C39.5584 58.5625 40.2738 58.2662 40.8012 57.7387C41.3287 57.2113 41.625 56.4959 41.625 55.75C41.625 55.0041 41.3287 54.2887 40.8012 53.7613C40.2738 53.2338 39.5584 52.9375 38.8125 52.9375C38.0666 52.9375 37.3512 53.2338 36.8238 53.7613C36.2963 54.2887 36 55.0041 36 55.75ZM40.6875 41.6875C40.6875 42.0568 40.7602 42.4226 40.9016 42.7638C41.0429 43.105 41.2501 43.4151 41.5113 43.6762C41.7724 43.9374 42.0825 44.1446 42.4237 44.2859C42.7649 44.4273 43.1307 44.5 43.5 44.5C43.8693 44.5 44.2351 44.4273 44.5763 44.2859C44.9175 44.1446 45.2276 43.9374 45.4887 43.6762C45.7499 43.4151 45.9571 43.105 46.0984 42.7638C46.2398 42.4226 46.3125 42.0568 46.3125 41.6875C46.3125 41.3182 46.2398 40.9524 46.0984 40.6112C45.9571 40.27 45.7499 39.9599 45.4887 39.6988C45.2276 39.4376 44.9175 39.2304 44.5763 39.0891C44.2351 38.9477 43.8693 38.875 43.5 38.875C43.1307 38.875 42.7649 38.9477 42.4237 39.0891C42.0825 39.2304 41.7724 39.4376 41.5113 39.6988C41.2501 39.9599 41.0429 40.27 40.9016 40.6112C40.7602 40.9524 40.6875 41.3182 40.6875 41.6875ZM39.75 70.75C39.75 71.4959 40.0463 72.2113 40.5738 72.7387C41.1012 73.2662 41.8166 73.5625 42.5625 73.5625C43.3084 73.5625 44.0238 73.2662 44.5512 72.7387C45.0787 72.2113 45.375 71.4959 45.375 70.75C45.375 70.0041 45.0787 69.2887 44.5512 68.7613C44.0238 68.2338 43.3084 67.9375 42.5625 67.9375C41.8166 67.9375 41.1012 68.2338 40.5738 68.7613C40.0463 69.2887 39.75 70.0041 39.75 70.75Z" stroke="#10B981" stroke-width="2.5"/>
<path d="M41.625 55.75H55.2188M55.2188 48.25H50.0625L45.8438 44.0312M55.2188 64.1875H49.125L44.9062 68.4062" stroke="#10B981" stroke-width="2.5" stroke-linecap="round" stroke-linejoin="round"/>
<path d="M63.1875 74.9688V70.1284L67.5637 70.8663C67.9473 70.9309 68.3401 70.9153 68.7173 70.8204C69.0945 70.7255 69.4479 70.5535 69.7552 70.315C70.0625 70.0766 70.317 69.7771 70.5027 69.4353C70.6883 69.0935 70.801 68.7169 70.8337 68.3294L71.3719 61.9431C73.1062 61.5541 74.3531 60.9269 75.1622 60.4038C75.8878 59.935 75.9722 58.9881 75.4884 58.2719L71.6016 52.5184C71.1403 43.87 63.9816 37 55.2188 37V74.9688" stroke="#1E3A8A" stroke-width="2.5" stroke-linecap="round" stroke-linejoin="round"/>
</svg>
