<svg width="70" height="70" viewBox="0 0 70 70" fill="none" xmlns="http://www.w3.org/2000/svg">
<path d="M48 53L56.604 44.396C56.8572 44.1431 56.9997 43.7999 57 43.442V31.625C57 30.7299 56.6444 29.8714 56.0115 29.2385C55.3785 28.6056 54.5201 28.25 53.625 28.25C52.7299 28.25 51.8715 28.6056 51.2385 29.2385C50.6056 29.8714 50.25 30.7299 50.25 31.625V41.75" stroke="#10B981" stroke-width="2.5" stroke-linecap="round" stroke-linejoin="round"/>
<path d="M48 44L49.9305 42.0695C50.0323 41.9685 50.113 41.8483 50.1679 41.7158C50.2227 41.5833 50.2507 41.4412 50.25 41.2977C50.2484 41.0957 50.1913 40.898 50.085 40.7261C49.9787 40.5543 49.8271 40.415 49.647 40.3235L48.6503 39.8263C47.8058 39.404 46.8499 39.2581 45.918 39.4091C44.986 39.5601 44.1252 40.0005 43.4573 40.6678L41.4435 42.6815C40.5995 43.5252 40.1253 44.6696 40.125 45.863V53M21 53L12.396 44.396C12.1428 44.1431 12.0003 43.7999 12 43.442V31.625C12 30.7299 12.3556 29.8714 12.9885 29.2385C13.6215 28.6056 14.4799 28.25 15.375 28.25C16.2701 28.25 17.1286 28.6056 17.7615 29.2385C18.3944 29.8714 18.75 30.7299 18.75 31.625V41.75" stroke="#10B981" stroke-width="2.5" stroke-linecap="round" stroke-linejoin="round"/>
<path d="M21 44.0004L19.0695 42.0699C18.8679 41.8632 18.7535 41.5869 18.75 41.2981C18.75 40.8864 18.984 40.5106 19.353 40.3239L20.3497 39.8266C21.1942 39.4044 22.1501 39.2585 23.082 39.4095C24.014 39.5605 24.8749 40.0008 25.5428 40.6681L27.5565 42.6819C28.4005 43.5256 28.8747 44.67 28.875 45.8634V53.0004" stroke="#10B981" stroke-width="2.5" stroke-linecap="round" stroke-linejoin="round"/>
<path d="M38.2507 35H30.7493V29.7507H25.5V22.2493H30.7493V17H38.2507V22.2493H43.5V29.7507H38.2507V35Z" stroke="#1E3A8A" stroke-width="2.5" stroke-linecap="round" stroke-linejoin="round"/>
</svg>
