<svg width="70" height="70" viewBox="0 0 70 70" fill="none" xmlns="http://www.w3.org/2000/svg">
<path d="M24.4375 52.1562H44.125" stroke="white" stroke-width="2" stroke-miterlimit="10" stroke-linecap="round" stroke-linejoin="round"/>
<path d="M30.0625 43.7188C30.0625 46.6719 29.0781 50.1875 27.5312 52.1562" stroke="white" stroke-width="2" stroke-miterlimit="10" stroke-linecap="round" stroke-linejoin="round"/>
<path d="M41.0312 52.1562C39.4844 50.1875 38.5 46.6719 38.5 43.7188" stroke="white" stroke-width="2" stroke-miterlimit="10" stroke-linecap="round" stroke-linejoin="round"/>
<path d="M34.2812 39.5V25.4375C34.2812 23.0469 32.4531 21.2188 30.0625 21.2188H21.625V35.2812H30.0625C32.4531 35.2812 34.2812 37.1094 34.2812 39.5Z" stroke="white" stroke-width="2" stroke-miterlimit="10" stroke-linecap="round" stroke-linejoin="round"/>
<path d="M34.2812 39.5V25.4375C34.2812 23.0469 36.1094 21.2188 38.5 21.2188H46.9375V35.2812H38.5C36.1094 35.2812 34.2812 37.1094 34.2812 39.5Z" stroke="white" stroke-width="2" stroke-miterlimit="10" stroke-linecap="round" stroke-linejoin="round"/>
<path d="M16 19.8125V40.9062C16 42.4531 17.2656 43.7188 18.8125 43.7188H49.75C51.2969 43.7188 52.5625 42.4531 52.5625 40.9062V19.8125C52.5625 18.2656 51.2969 17 49.75 17H18.8125C17.2656 17 16 18.2656 16 19.8125Z" stroke="white" stroke-width="2" stroke-miterlimit="10" stroke-linecap="round" stroke-linejoin="round"/>
</svg>
