<svg width="69" height="69" viewBox="0 0 69 69" fill="none" xmlns="http://www.w3.org/2000/svg">
<path d="M34.5 51.375C35.2767 51.375 35.9062 50.7454 35.9062 49.9688C35.9062 49.1921 35.2767 48.5625 34.5 48.5625C33.7233 48.5625 33.0938 49.1921 33.0938 49.9688C33.0938 50.7454 33.7233 51.375 34.5 51.375Z" fill="white"/>
<path d="M41.5312 51.375C42.3079 51.375 42.9375 50.7454 42.9375 49.9688C42.9375 49.1921 42.3079 48.5625 41.5312 48.5625C40.7546 48.5625 40.125 49.1921 40.125 49.9688C40.125 50.7454 40.7546 51.375 41.5312 51.375Z" fill="white"/>
<path d="M20.4375 51.375C21.2142 51.375 21.8438 50.7454 21.8438 49.9688C21.8438 49.1921 21.2142 48.5625 20.4375 48.5625C19.6608 48.5625 19.0312 49.1921 19.0312 49.9688C19.0312 50.7454 19.6608 51.375 20.4375 51.375Z" fill="white"/>
<path d="M27.4688 51.375C28.2454 51.375 28.875 50.7454 28.875 49.9688C28.875 49.1921 28.2454 48.5625 27.4688 48.5625C26.6921 48.5625 26.0625 49.1921 26.0625 49.9688C26.0625 50.7454 26.6921 51.375 27.4688 51.375Z" fill="white"/>
<path d="M31.6875 27.4688H37.3125V31.6875C37.3125 32.0605 37.1643 32.4181 36.9006 32.6819C36.6369 32.9456 36.2792 33.0938 35.9062 33.0938H33.0938C32.7208 33.0938 32.3631 32.9456 32.0994 32.6819C31.8357 32.4181 31.6875 32.0605 31.6875 31.6875V27.4688Z" fill="white"/>
<path d="M48.5625 51.375C49.3392 51.375 49.9688 50.7454 49.9688 49.9688C49.9688 49.1921 49.3392 48.5625 48.5625 48.5625C47.7858 48.5625 47.1562 49.1921 47.1562 49.9688C47.1562 50.7454 47.7858 51.375 48.5625 51.375Z" fill="white"/>
<path d="M49.9688 42.9375H44.0906C44.2543 42.4866 44.3399 42.011 44.3438 41.5312V30.2812C44.3438 29.1624 43.8993 28.0893 43.1081 27.2981C42.3169 26.507 41.2439 26.0625 40.125 26.0625H28.875C27.7561 26.0625 26.6831 26.507 25.8919 27.2981C25.1007 28.0893 24.6562 29.1624 24.6562 30.2812V41.5312C24.6601 42.011 24.7457 42.4866 24.9094 42.9375H19.0312C17.1664 42.9375 15.378 43.6783 14.0594 44.9969C12.7408 46.3155 12 48.1039 12 49.9688C12 51.8336 12.7408 53.622 14.0594 54.9406C15.378 56.2592 17.1664 57 19.0312 57H49.9688C51.8336 57 53.622 56.2592 54.9406 54.9406C56.2592 53.622 57 51.8336 57 49.9688C57 48.1039 56.2592 46.3155 54.9406 44.9969C53.622 43.6783 51.8336 42.9375 49.9688 42.9375ZM27.4688 41.5312V30.2812C27.4688 29.9083 27.6169 29.5506 27.8806 29.2869C28.1444 29.0232 28.502 28.875 28.875 28.875H40.125C40.498 28.875 40.8556 29.0232 41.1194 29.2869C41.3831 29.5506 41.5312 29.9083 41.5312 30.2812V41.5312C41.5312 41.9042 41.3831 42.2619 41.1194 42.5256C40.8556 42.7893 40.498 42.9375 40.125 42.9375H28.875C28.502 42.9375 28.1444 42.7893 27.8806 42.5256C27.6169 42.2619 27.4688 41.9042 27.4688 41.5312ZM49.9688 54.1875H19.0312C17.9124 54.1875 16.8393 53.743 16.0481 52.9519C15.257 52.1607 14.8125 51.0876 14.8125 49.9688C14.8125 48.8499 15.257 47.7768 16.0481 46.9856C16.8393 46.1945 17.9124 45.75 19.0312 45.75H49.9688C51.0876 45.75 52.1607 46.1945 52.9519 46.9856C53.743 47.7768 54.1875 48.8499 54.1875 49.9688C54.1875 51.0876 53.743 52.1607 52.9519 52.9519C52.1607 53.743 51.0876 54.1875 49.9688 54.1875Z" fill="white"/>
<path d="M46.9031 18.4969L40.125 16.5703V14.8125C40.125 14.0666 39.8287 13.3512 39.3012 12.8238C38.7738 12.2963 38.0584 12 37.3125 12H31.6875C30.9416 12 30.2262 12.2963 29.6988 12.8238C29.1713 13.3512 28.875 14.0666 28.875 14.8125V16.5703L22.0969 18.4969C21.213 18.748 20.4353 19.2809 19.882 20.0144C19.3287 20.748 19.03 21.6421 19.0313 22.5609V27.4688C19.0313 27.8417 19.1794 28.1994 19.4431 28.4631C19.7069 28.7268 20.0645 28.875 20.4375 28.875C20.8105 28.875 21.1681 28.7268 21.4319 28.4631C21.6956 28.1994 21.8438 27.8417 21.8438 27.4688V22.5609C21.8313 22.2471 21.9242 21.9382 22.1077 21.6833C22.2912 21.4285 22.5547 21.2424 22.8563 21.1547L28.875 19.4953V20.4375C28.875 21.1834 29.1713 21.8988 29.6988 22.4262C30.2262 22.9537 30.9416 23.25 31.6875 23.25H37.3125C38.0584 23.25 38.7738 22.9537 39.3012 22.4262C39.8287 21.8988 40.125 21.1834 40.125 20.4375V19.4953L46.1438 21.2109C46.4453 21.2986 46.7088 21.4847 46.8923 21.7396C47.0758 21.9944 47.1687 22.3034 47.1563 22.6172V27.4688C47.1563 27.8417 47.3044 28.1994 47.5681 28.4631C47.8319 28.7268 48.1895 28.875 48.5625 28.875C48.9355 28.875 49.2932 28.7268 49.5569 28.4631C49.8206 28.1994 49.9688 27.8417 49.9688 27.4688V22.5609C49.9701 21.6421 49.6713 20.748 49.118 20.0144C48.5647 19.2809 47.787 18.748 46.9031 18.4969ZM37.3125 20.4375H31.6875V14.8125H37.3125V20.4375Z" fill="white"/>
</svg>
