<svg width="71" height="71" viewBox="0 0 71 71" fill="none" xmlns="http://www.w3.org/2000/svg">
<path d="M56.1875 23.7803V28.9102H14V23.8076L34.3691 14L56.1875 23.7803ZM16.8125 25.5752V26.0977H53.375V25.6025L34.4121 17.1016L16.8125 25.5752Z" fill="#EEFAFD"/>
<path d="M16.8125 48.5977H53.375V51.4102H16.8125V48.5977Z" fill="#EEFAFD"/>
<path d="M14 53.5195H56.1875V56.332H14V53.5195Z" fill="#EEFAFD"/>
<path d="M17.5156 31.7227H20.3281V45.7852H17.5156V31.7227Z" fill="#EEFAFD"/>
<path d="M49.8594 31.7227H52.6719V45.7852H49.8594V31.7227Z" fill="#EEFAFD"/>
<path d="M41.4219 31.7227H44.2344V45.7852H41.4219V31.7227Z" fill="#EEFAFD"/>
<path d="M25.9531 31.7227H28.7656V45.7852H25.9531V31.7227Z" fill="#EEFAFD"/>
<path d="M33.6875 31.7227H36.5V45.7852H33.6875V31.7227Z" fill="#EEFAFD"/>
</svg>
