<svg width="70" height="70" viewBox="0 0 70 70" fill="none" xmlns="http://www.w3.org/2000/svg">
<path d="M19.75 16H34.75C35.7446 16 36.6984 16.3951 37.4016 17.0983C38.1049 17.8016 38.5 18.7554 38.5 19.75V53.5H19.75C18.7554 53.5 17.8016 53.1049 17.0983 52.4016C16.3951 51.6984 16 50.7446 16 49.75V19.75C16 18.7554 16.3951 17.8016 17.0983 17.0983C17.8016 16.3951 18.7554 16 19.75 16Z" stroke="white" stroke-width="3.75" stroke-linecap="round" stroke-linejoin="round"/>
<path d="M38.5 31H49.75C50.7446 31 51.6984 31.3951 52.4016 32.0984C53.1049 32.8016 53.5 33.7554 53.5 34.75V49.75C53.5 50.7446 53.1049 51.6984 52.4016 52.4016C51.6984 53.1049 50.7446 53.5 49.75 53.5H38.5" stroke="white" stroke-width="3.75" stroke-linecap="round" stroke-linejoin="round"/>
<path d="M21.625 23.5H23.5" stroke="white" stroke-width="3.75" stroke-linecap="round" stroke-linejoin="round"/>
<path d="M29.125 23.5H32.875" stroke="white" stroke-width="3.75" stroke-linecap="round" stroke-linejoin="round"/>
<path d="M21.625 31H23.5" stroke="white" stroke-width="3.75" stroke-linecap="round" stroke-linejoin="round"/>
<path d="M29.125 31H32.875" stroke="white" stroke-width="3.75" stroke-linecap="round" stroke-linejoin="round"/>
<path d="M21.625 38.5H23.5" stroke="white" stroke-width="3.75" stroke-linecap="round" stroke-linejoin="round"/>
<path d="M29.125 38.5H32.875" stroke="white" stroke-width="3.75" stroke-linecap="round" stroke-linejoin="round"/>
<path d="M21.625 46H23.5" stroke="white" stroke-width="3.75" stroke-linecap="round" stroke-linejoin="round"/>
<path d="M29.125 46H32.875" stroke="white" stroke-width="3.75" stroke-linecap="round" stroke-linejoin="round"/>
<path d="M44.125 38.5H47.875" stroke="white" stroke-width="3.75" stroke-linecap="round" stroke-linejoin="round"/>
<path d="M44.125 46H47.875" stroke="white" stroke-width="3.75" stroke-linecap="round" stroke-linejoin="round"/>
</svg>
