<svg width="69" height="70" viewBox="0 0 69 70" fill="none" xmlns="http://www.w3.org/2000/svg">
<path d="M32.1949 23.1245C31.9559 22.4453 31.5119 21.857 30.9244 21.4408C30.3369 21.0246 29.6346 20.801 28.9146 20.8008H26.2187C25.454 20.8029 24.7168 21.0871 24.1486 21.599C23.5803 22.1108 23.2208 22.8143 23.1389 23.5747C23.0571 24.335 23.2586 25.0989 23.7049 25.72C24.1513 26.341 24.811 26.7756 25.5578 26.9404L29.6556 27.8379C30.494 28.0209 31.2353 28.5074 31.7367 29.2039C32.2382 29.9003 32.4645 30.7576 32.3722 31.6108C32.2798 32.464 31.8753 33.253 31.2364 33.826C30.5975 34.3991 29.7694 34.7157 28.9111 34.715H26.5909C25.8718 34.7153 25.1702 34.4927 24.5827 34.0778C23.9953 33.663 23.5509 33.0762 23.3107 32.3983" stroke="white" stroke-width="2.8" stroke-linecap="round" stroke-linejoin="round"/>
<path d="M27.7559 20.8008V17.3223" stroke="white" stroke-width="2.8" stroke-linecap="round" stroke-linejoin="round"/>
<path d="M27.7559 38.1934V34.7148" stroke="white" stroke-width="2.8" stroke-linecap="round" stroke-linejoin="round"/>
<path d="M34.3887 57.2112V38.9488C34.3887 37.7956 34.8468 36.6896 35.6622 35.8741C36.4777 35.0587 37.5837 34.6006 38.7369 34.6006C39.8901 34.6006 40.9961 35.0587 41.8115 35.8741C42.627 36.6896 43.0851 37.7956 43.0851 38.9488V48.5148H50.0422C51.8873 48.5148 53.6569 49.2478 54.9616 50.5525C56.2663 51.8572 56.9993 53.6268 56.9993 55.472V57.2112" stroke="white" stroke-width="2.8" stroke-linecap="round" stroke-linejoin="round"/>
<path d="M27.7592 43.5227C24.5498 43.5223 21.417 42.5421 18.7797 40.7132C16.1424 38.8843 14.1262 36.2939 13.0008 33.2883C11.8754 30.2827 11.6944 27.0052 12.4819 23.8939C13.2694 20.7826 14.9879 17.9859 17.4078 15.8776C19.8276 13.7694 22.8333 12.4501 26.0232 12.0962C29.213 11.7422 32.4348 12.3705 35.258 13.897C38.0811 15.4235 40.371 17.7754 41.8214 20.6384C43.2718 23.5014 43.8136 26.7389 43.3745 29.9181" stroke="white" stroke-width="2.8" stroke-linecap="round"/>
</svg>
