<svg width="69" height="70" viewBox="0 0 69 70" fill="none" xmlns="http://www.w3.org/2000/svg">
<path d="M34.2813 57.0014C34.1288 56.9986 33.9774 56.975 33.8313 56.9311C28.6355 55.2024 24.1164 51.8808 20.9156 47.438C17.7147 42.9952 15.9948 37.6569 16 32.1811V20.439C16 20.066 16.1482 19.7083 16.4119 19.4446C16.6756 19.1809 17.0333 19.0327 17.4063 19.0327C20.3438 19.0432 23.2541 18.4692 25.9678 17.3442C28.6814 16.2191 31.1441 14.5655 33.2125 12.4796C33.4949 12.19 33.8771 12.019 34.2813 12.0015C34.4691 11.9929 34.6567 12.0221 34.833 12.0873C35.0093 12.1525 35.1708 12.2524 35.3078 12.3811C37.3768 14.4849 39.8434 16.1563 42.5642 17.2982C45.285 18.4401 48.2056 19.0297 51.1563 19.0327C51.5292 19.0327 51.8869 19.1809 52.1506 19.4446C52.4144 19.7083 52.5625 20.066 52.5625 20.439V32.1811C52.5825 37.6689 50.8695 43.0229 47.6676 47.4798C44.4657 51.9367 39.9384 55.269 34.7313 57.0014C34.5819 57.0217 34.4306 57.0217 34.2813 57.0014ZM18.8125 21.8452V32.2233C18.8176 37.021 20.3071 41.6996 23.0766 45.6172C25.8461 49.5348 29.76 52.4995 34.2813 54.1046C38.8093 52.4971 42.728 49.526 45.4981 45.6C48.2682 41.674 49.7536 36.986 49.75 32.1811V21.8452C43.9978 21.5327 38.5315 19.2369 34.2813 15.3483C30.0291 19.2339 24.5639 21.5293 18.8125 21.8452Z" fill="white"/>
<path d="M31.4688 26.0635H37.0938V30.5354C37.0938 30.8412 36.9723 31.1345 36.756 31.3507C36.5398 31.567 36.2465 31.6885 35.9406 31.6885H32.6219C32.316 31.6885 32.0227 31.567 31.8065 31.3507C31.5902 31.1345 31.4688 30.8412 31.4688 30.5354V26.0635Z" fill="white"/>
<path d="M40.4078 44.4395H28.3422C27.3326 44.4357 26.3654 44.033 25.6515 43.3192C24.9377 42.6053 24.535 41.6381 24.5312 40.6285V28.5629C24.535 27.5533 24.9377 26.5861 25.6515 25.8722C26.3654 25.1584 27.3326 24.7557 28.3422 24.752H40.4078C41.4174 24.7557 42.3846 25.1584 43.0985 25.8722C43.8123 26.5861 44.215 27.5533 44.2188 28.5629V40.6285C44.215 41.6381 43.8123 42.6053 43.0985 43.3192C42.3846 44.033 41.4174 44.4357 40.4078 44.4395ZM28.3422 27.5645C28.0774 27.5645 27.8234 27.6696 27.6362 27.8569C27.4489 28.0441 27.3438 28.2981 27.3438 28.5629V40.6285C27.3438 40.8933 27.4489 41.1473 27.6362 41.3345C27.8234 41.5218 28.0774 41.627 28.3422 41.627H40.4078C40.6726 41.627 40.9266 41.5218 41.1138 41.3345C41.3011 41.1473 41.4062 40.8933 41.4062 40.6285V28.5629C41.4062 28.2981 41.3011 28.0441 41.1138 27.8569C40.9266 27.6696 40.6726 27.5645 40.4078 27.5645H28.3422Z" fill="white"/>
</svg>
