<svg width="70" height="71" viewBox="0 0 70 71" fill="none" xmlns="http://www.w3.org/2000/svg">
<path d="M46.5098 14C46.9157 14 47.3168 14.0881 47.6855 14.2578C48.0545 14.4277 48.3825 14.6757 48.6465 14.9844L55.9844 23.5459C56.6395 24.3104 57 25.2842 57 26.291V27.0078C57.0002 28.3999 56.5658 29.7577 55.7568 30.8906C54.9479 32.0235 53.8049 32.8754 52.4883 33.3271C51.1716 33.7789 49.7461 33.8078 48.4121 33.4102C47.078 33.0124 45.9013 32.2074 45.0469 31.1084C44.4229 31.9121 43.623 32.5627 42.709 33.0098C41.795 33.4567 40.7908 33.6884 39.7734 33.6875C38.756 33.6886 37.7519 33.4567 36.8379 33.0098C35.9238 32.5627 35.1238 31.9123 34.5 31.1084C33.8762 31.9123 33.0762 32.5627 32.1621 33.0098C31.2481 33.4567 30.244 33.6886 29.2266 33.6875C28.2091 33.6886 27.205 33.4567 26.291 33.0098C25.3769 32.5627 24.577 31.9123 23.9531 31.1084C23.0987 32.2074 21.922 33.0124 20.5879 33.4102C19.2539 33.8078 17.8284 33.7789 16.5117 33.3271C15.1951 32.8754 14.0521 32.0235 13.2432 30.8906C12.4342 29.7577 11.9998 28.3999 12 27.0078V26.291C12 25.2842 12.3605 24.3104 13.0156 23.5459L20.3555 14.9814L20.3535 14.9844C20.6175 14.6757 20.9455 14.4277 21.3145 14.2578C21.6832 14.0881 22.0843 14 22.4902 14H46.5098ZM15.1504 25.377C14.9326 25.6317 14.8125 25.9559 14.8125 26.291V27.0078C14.8125 28.0335 15.2201 29.0169 15.9453 29.7422C16.6706 30.4674 17.654 30.875 18.6797 30.875C19.7053 30.875 20.6888 30.4674 21.4141 29.7422C22.1393 29.0169 22.5469 28.0335 22.5469 27.0078C22.5469 26.6349 22.6953 26.2774 22.959 26.0137C23.2227 25.7499 23.5802 25.6016 23.9531 25.6016C24.3261 25.6016 24.6835 25.7499 24.9473 26.0137C25.211 26.2774 25.3594 26.6349 25.3594 27.0078C25.3594 28.0335 25.7669 29.0169 26.4922 29.7422C27.2174 30.4674 28.2009 30.875 29.2266 30.875C30.2522 30.875 31.2357 30.4674 31.9609 29.7422C32.6862 29.0169 33.0938 28.0335 33.0938 27.0078C33.0938 26.6349 33.2421 26.2774 33.5059 26.0137C33.7696 25.7499 34.127 25.6016 34.5 25.6016C34.873 25.6016 35.2304 25.7499 35.4941 26.0137C35.7579 26.2774 35.9062 26.6349 35.9062 27.0078C35.9062 28.0335 36.3138 29.0169 37.0391 29.7422C37.7643 30.4674 38.7478 30.875 39.7734 30.875C40.7991 30.875 41.7826 30.4674 42.5078 29.7422C43.2331 29.0169 43.6406 28.0335 43.6406 27.0078C43.6406 26.6349 43.789 26.2774 44.0527 26.0137C44.3165 25.7499 44.6739 25.6016 45.0469 25.6016C45.4198 25.6016 45.7773 25.7499 46.041 26.0137C46.3047 26.2774 46.4531 26.6349 46.4531 27.0078C46.4531 28.0335 46.8607 29.0169 47.5859 29.7422C48.3112 30.4674 49.2947 30.875 50.3203 30.875C51.346 30.875 52.3294 30.4674 53.0547 29.7422C53.7799 29.0169 54.1875 28.0335 54.1875 27.0078V26.291C54.1875 25.9559 54.0674 25.6317 53.8496 25.377L46.5098 16.8125H22.4902L15.1504 25.377Z" fill="white"/>
<path d="M52.7812 35.0938C53.1542 35.0938 53.5117 35.2421 53.7754 35.5059C54.0391 35.7696 54.1875 36.127 54.1875 36.5V53.375H55.5938C55.9667 53.375 56.3242 53.5234 56.5879 53.7871C56.8516 54.0508 57 54.4083 57 54.7812C57 55.1542 56.8516 55.5117 56.5879 55.7754C56.3242 56.0391 55.9667 56.1875 55.5938 56.1875H13.4062C13.0333 56.1875 12.6758 56.0391 12.4121 55.7754C12.1484 55.5117 12 55.1542 12 54.7812C12 54.4083 12.1484 54.0508 12.4121 53.7871C12.6758 53.5234 13.0333 53.375 13.4062 53.375H14.8125V36.5C14.8125 36.127 14.9609 35.7696 15.2246 35.5059C15.4883 35.2421 15.8458 35.0938 16.2188 35.0938C16.5917 35.0938 16.9492 35.2421 17.2129 35.5059C17.4766 35.7696 17.625 36.127 17.625 36.5V53.375H20.4375V39.3125C20.4375 38.5666 20.7343 37.8517 21.2617 37.3242C21.7892 36.7968 22.5041 36.5 23.25 36.5H31.6875C32.4334 36.5 33.1483 36.7968 33.6758 37.3242C34.2032 37.8517 34.5 38.5666 34.5 39.3125V53.375H51.375V36.5C51.375 36.127 51.5234 35.7696 51.7871 35.5059C52.0508 35.2421 52.4083 35.0938 52.7812 35.0938ZM23.25 53.375H31.6875V39.3125H23.25V53.375Z" fill="white"/>
<path d="M45.75 36.5C46.4959 36.5 47.2108 36.7968 47.7383 37.3242C48.2657 37.8517 48.5625 38.5666 48.5625 39.3125V47.75C48.5625 48.4959 48.2657 49.2108 47.7383 49.7383C47.2108 50.2657 46.4959 50.5625 45.75 50.5625H40.125C39.3791 50.5625 38.6642 50.2657 38.1367 49.7383C37.6093 49.2108 37.3125 48.4959 37.3125 47.75V39.3125C37.3125 38.5666 37.6093 37.8517 38.1367 37.3242C38.6642 36.7968 39.3791 36.5 40.125 36.5H45.75ZM40.125 47.75H45.75V39.3125H40.125V47.75Z" fill="white"/>
</svg>
