<svg width="70" height="70" viewBox="0 0 70 70" fill="none" xmlns="http://www.w3.org/2000/svg">
<path d="M36.7188 23C37.0917 23 37.4492 23.1484 37.7129 23.4121C37.9766 23.6758 38.125 24.0333 38.125 24.4062V32.8438C38.125 33.2167 37.9766 33.5742 37.7129 33.8379C37.4492 34.1016 37.0917 34.25 36.7188 34.25H26.4062C25.63 34.25 25 33.62 25 32.8438V24.4062C25 24.0333 25.1484 23.6758 25.4121 23.4121C25.6758 23.1484 26.0333 23 26.4062 23H36.7188ZM27.8125 25.8125V31.4375H35.3125V25.8125H27.8125Z" fill="white"/>
<path d="M39.0938 17C39.7709 17 40.4418 17.1335 41.0674 17.3926C41.6928 17.6517 42.2615 18.0311 42.7402 18.5098C43.2189 18.9885 43.5983 19.5572 43.8574 20.1826C44.1165 20.8082 44.25 21.4791 44.25 22.1562V38.3359C44.2608 38.411 44.2669 38.4867 44.2686 38.5625V41.8535C44.2686 42.1598 44.3291 42.4631 44.4463 42.7461C44.5636 43.0293 44.7354 43.2872 44.9521 43.5039C45.1689 43.7207 45.4267 43.8925 45.71 44.0098C45.9931 44.127 46.297 44.1875 46.6035 44.1875C46.9098 44.1874 47.2131 44.1269 47.4961 44.0098C47.7793 43.8925 48.0371 43.7207 48.2539 43.5039C48.4707 43.2871 48.6425 43.0293 48.7598 42.7461C48.8769 42.4631 48.9374 42.1598 48.9375 41.8535V30.9072C48.9375 30.4011 48.7724 29.9059 48.4688 29.501L46.4062 26.75C46.1825 26.4516 46.0859 26.0762 46.1387 25.707C46.1915 25.3379 46.3892 25.005 46.6875 24.7812C46.9859 24.5575 47.3613 24.4609 47.7305 24.5137C48.0996 24.5665 48.4325 24.7642 48.6562 25.0625L50.7188 27.8135C51.388 28.706 51.75 29.7917 51.75 30.9072V41.8535C51.7502 42.7356 51.5233 43.6027 51.0918 44.3721C50.6602 45.1415 50.0381 45.7873 49.2852 46.2471C48.5322 46.7068 47.6736 46.9657 46.792 46.998C45.9103 47.0304 45.0347 46.835 44.25 46.4316V49.8125H44.7188C45.0917 49.8125 45.4492 49.9609 45.7129 50.2246C45.9766 50.4883 46.125 50.8458 46.125 51.2188C46.125 51.5917 45.9766 51.9492 45.7129 52.2129C45.4492 52.4766 45.0917 52.625 44.7188 52.625H19.4062C19.0333 52.625 18.6758 52.4766 18.4121 52.2129C18.1484 51.9492 18 51.5917 18 51.2188C18 50.8458 18.1484 50.4883 18.4121 50.2246C18.6758 49.9609 19.0333 49.8125 19.4062 49.8125H19.875V22.1562C19.875 20.7887 20.4178 19.4767 21.3848 18.5098C22.3517 17.5428 23.6637 17 25.0312 17H39.0938ZM25.0312 19.8125C23.7375 19.8125 22.6875 20.8625 22.6875 22.1562V49.8125H41.4375V22.1562C41.4375 20.8625 40.3875 19.8125 39.0938 19.8125H25.0312Z" fill="white"/>
</svg>
