<svg width="70" height="70" viewBox="0 0 70 70" fill="none" xmlns="http://www.w3.org/2000/svg">
<path d="M19.2881 13.8496L19.2393 14.0371C18.9087 15.3167 18.7315 16.6589 18.7314 18.043C18.7314 22.9562 20.9478 27.3451 24.4365 30.2666L24.7783 30.5439L24.8047 30.5654L24.8193 30.5947C25.397 31.7509 26.0675 32.805 26.8311 33.7227L26.6475 33.9521C20.839 31.0153 16.8496 24.9902 16.8496 18.043C16.8488 16.6703 17.007 15.3022 17.3203 13.9658L17.3477 13.8496H19.2881Z" fill="white" stroke="#EEFAFD" stroke-width="0.3"/>
<path d="M25.2402 13.8496L25.1533 14.0576C24.6407 15.2829 24.3565 16.629 24.3564 18.043C24.3564 20.806 25.4379 23.3112 27.2012 25.1602L27.5635 25.5215L27.5898 25.5469L27.6016 25.583C27.9376 26.5906 28.3651 27.5791 28.9082 28.4658L29.209 28.958L28.7061 28.6748C24.9908 26.5845 22.4746 22.6032 22.4746 18.043C22.4746 16.6077 22.725 15.2293 23.1826 13.9492L23.2178 13.8496H25.2402Z" fill="white" stroke="#EEFAFD" stroke-width="0.3"/>
<path d="M31.1045 13.8496L31.0576 14.0361C30.9483 14.478 30.8596 14.9248 30.792 15.375L30.7871 15.4082L30.7686 15.4365C30.2714 16.1806 29.9815 17.0761 29.9814 18.043C29.9814 18.8892 30.2032 19.6812 30.5918 20.3643L30.7686 20.6504L30.7871 20.6777L30.792 20.7109C30.9446 21.7214 31.1863 22.6707 31.5156 23.4912L31.6816 23.9053L31.2988 23.6758C29.3857 22.5269 28.0996 20.4309 28.0996 18.043C28.0997 16.4766 28.6535 15.0354 29.5742 13.9053L29.6191 13.8496H31.1045Z" fill="white" stroke="#EEFAFD" stroke-width="0.3"/>
<path d="M39.7119 13.8496L39.7568 13.9053C40.6778 15.0354 41.2314 16.4765 41.2314 18.043C41.2314 20.431 39.9455 22.5269 38.0322 23.6758L37.6494 23.9053L37.8154 23.4912C38.1447 22.6707 38.3865 21.7213 38.5391 20.7109L38.5439 20.6777L38.5625 20.6504C39.0598 19.9062 39.3496 19.0101 39.3496 18.043C39.3496 17.076 39.0597 16.1804 38.5625 15.4365L38.5439 15.4082L38.5391 15.375C38.4715 14.9248 38.3827 14.4781 38.2734 14.0361L38.2275 13.8496H39.7119Z" fill="white" stroke="#EEFAFD" stroke-width="0.3"/>
<path d="M46.1123 13.8496L46.1484 13.9492C46.6061 15.2293 46.8554 16.6077 46.8555 18.043C46.8555 22.6035 44.3396 26.5847 40.624 28.6748L40.1221 28.958L40.4229 28.4658C40.9658 27.5791 41.3926 26.5905 41.7285 25.583L41.7402 25.5469L41.7676 25.5215C43.7437 23.6444 44.9746 20.9903 44.9746 18.043C44.9746 16.629 44.6903 15.2829 44.1777 14.0576L44.0908 13.8496H46.1123Z" fill="white" stroke="#EEFAFD" stroke-width="0.3"/>
<path d="M51.9854 13.8496L52.0127 13.9658C52.3201 15.2755 52.4824 16.6406 52.4824 18.043C52.4824 24.9903 48.493 31.0153 42.6846 33.9521L42.502 33.7227C43.2655 32.805 43.936 31.7509 44.5137 30.5947L44.5283 30.5654L44.5547 30.5439C48.2394 27.6269 50.6006 23.1145 50.6006 18.043C50.6011 16.6917 50.4306 15.3454 50.0928 14.0371L50.0449 13.8496H51.9854Z" fill="white" stroke="#EEFAFD" stroke-width="0.3"/>
<path d="M34.666 15.8711C35.8747 15.8711 36.8378 16.8343 36.8379 18.043C36.8379 19.2517 35.8747 20.2148 34.666 20.2148C33.4574 20.2148 32.4941 19.2516 32.4941 18.043C32.4942 16.8344 33.4574 15.8712 34.666 15.8711Z" fill="white" stroke="#EEFAFD" stroke-width="0.3"/>
<path d="M36.7412 21.0781L46.959 54.2842L47.0469 54.5713L46.7607 54.6592L45.248 55.125L44.9619 55.2129L44.873 54.9258L43.7686 51.335L34.666 49.2334L25.5625 51.335L24.459 54.9258L24.3711 55.2129L24.084 55.125L22.5723 54.6592L22.2852 54.5713L22.373 54.2842L32.5908 21.0781L32.7012 20.7178L33.0273 20.9062C33.4508 21.151 33.9245 21.2973 34.4121 21.335L34.666 21.3545L34.9209 21.335C35.4084 21.2973 35.8813 21.1509 36.3047 20.9062L36.6309 20.7178L36.7412 21.0781ZM34.5635 43.6592L28.9072 45.7158L27.9551 46.0625L28.9424 46.291L34.5986 47.5957L34.666 47.6113L34.7334 47.5957L40.3896 46.291L41.377 46.0625L40.4248 45.7158L34.7686 43.6592L34.666 43.6221L34.5635 43.6592ZM27.9561 41.5186L26.9209 44.8828L26.7441 45.459L27.3105 45.2529L32.4541 43.3828L33.2285 43.1006L32.4541 42.8184L28.3457 41.3242L28.0488 41.2168L27.9561 41.5186ZM40.9863 41.3242L36.8779 42.8184L36.1025 43.1006L36.8779 43.3818L42.0215 45.2529L42.5879 45.459L42.4102 44.8828L41.375 41.5186L41.2822 41.2168L40.9863 41.3242ZM34.5703 38.749L29.9434 40.291L29.126 40.5635L29.9355 40.8574L34.5635 42.54L34.665 42.5781L34.7676 42.54L39.3955 40.8574L40.2051 40.5635L39.3877 40.291L34.7607 38.749L34.666 38.7168L34.5703 38.749ZM29.2715 37.2432L28.6758 39.1787L28.5049 39.7363L29.0576 39.5518L32.2598 38.4844L33.1133 38.2002L32.2598 37.915L29.6533 37.0469L29.3623 36.9492L29.2715 37.2432ZM39.6777 37.0469L37.0723 37.915L36.2188 38.2002L37.0723 38.4844L40.2734 39.5518L40.8271 39.7363L40.6553 39.1787L40.0596 37.2432L39.9697 36.9492L39.6777 37.0469ZM30.3975 35.626L34.666 37.0488L38.9346 35.625L34.666 21.752L30.3975 35.626ZM33.2334 21.3457C33.3552 21.399 33.4796 21.446 33.6064 21.4854H33.6074C33.4806 21.4461 33.3562 21.399 33.2344 21.3457H33.2334Z" fill="white"/>
<path d="M26.7344 46.8535L31.3174 47.9111V48.2041L26.0342 49.4229L25.7803 49.4814L25.8564 49.2324L26.5576 46.9561L26.5986 46.8223L26.7344 46.8535Z" fill="white" stroke="white" stroke-width="0.3"/>
<path d="M42.9092 47.0137L43.6104 49.29L43.6865 49.5391L43.4336 49.4805L38.1494 48.2617V47.9688L42.7324 46.9111L42.8682 46.8799L42.9092 47.0137Z" fill="white" stroke="white" stroke-width="0.3"/>
</svg>
