<svg width="69" height="69" viewBox="0 0 69 69" fill="none" xmlns="http://www.w3.org/2000/svg">
<path d="M15 18C15 19.5913 15.6321 21.1174 16.7574 22.2426C17.8826 23.3679 19.4087 24 21 24C22.5913 24 24.1174 23.3679 25.2426 22.2426C26.3679 21.1174 27 19.5913 27 18C27 16.4087 26.3679 14.8826 25.2426 13.7574C24.1174 12.6321 22.5913 12 21 12C19.4087 12 17.8826 12.6321 16.7574 13.7574C15.6321 14.8826 15 16.4087 15 18Z" stroke="white" stroke-width="2.7" stroke-linecap="round" stroke-linejoin="round"/>
<path d="M21 27V39" stroke="#EEFAFD" stroke-width="2.7" stroke-linecap="round" stroke-linejoin="round"/>
<path d="M29.88 34.5002C29.512 32.2692 28.3178 30.2585 26.5349 28.868C24.7519 27.4775 22.5109 26.809 20.2576 26.9955C18.0042 27.1821 15.9036 28.2099 14.3736 29.8747C12.8435 31.5394 11.9962 33.7191 12 35.9802V41.9802H15L16.5 57.0002H25.5L27 42.0002" stroke="white" stroke-width="2.7" stroke-linecap="round" stroke-linejoin="round"/>
<path d="M35 39H55C55 39 57 39 57 41V55C57 55 57 57 55 57H35C35 57 33 57 33 55V41C33 41 33 39 35 39Z" stroke="white" stroke-width="2.7" stroke-linecap="round" stroke-linejoin="round"/>
<path d="M33 46.5H57" stroke="white" stroke-width="2.7" stroke-linecap="round" stroke-linejoin="round"/>
<path d="M45 46.5V50.5" stroke="white" stroke-width="2.7" stroke-linecap="round" stroke-linejoin="round"/>
<path d="M40.5 39V36.5C40.5 35.3065 40.9741 34.1619 41.818 33.318C42.6619 32.4741 43.8065 32 45 32C46.1935 32 47.3381 32.4741 48.182 33.318C49.0259 34.1619 49.5 35.3065 49.5 36.5V39" stroke="white" stroke-width="2.7" stroke-linecap="round" stroke-linejoin="round"/>
</svg>
