<svg width="70" height="70" viewBox="0 0 70 70" fill="none" xmlns="http://www.w3.org/2000/svg">
<path d="M42.6289 19.75C43.2174 19.75 43.6931 20.226 43.6934 20.8145V24.3682H50.8105C51.3225 24.3682 51.8214 24.5243 52.2412 24.8066H52.2402C52.6311 25.0676 52.945 25.4392 53.1387 25.8701L57.0898 32.3369C57.2012 32.508 57.25 32.7039 57.25 32.8975V43.2148C57.2499 43.8886 56.9851 44.5385 56.5039 45.0205C56.0283 45.4968 55.3738 45.7675 54.7002 45.7676H49.5605C49.0654 48.3252 46.8203 50.2498 44.127 50.25C41.4334 50.25 39.1886 48.3201 38.6934 45.7676H28.6855C28.1904 48.3254 25.9445 50.25 23.251 50.25C20.5576 50.2498 18.3136 48.32 17.8184 45.7676H14.3057C13.6341 45.7676 12.9789 45.5041 12.502 45.0215C12.0203 44.5449 11.7501 43.889 11.75 43.2148V22.3086C11.7501 21.6342 12.02 20.9776 12.502 20.501C12.9775 20.0199 13.6271 19.75 14.3057 19.75H42.6289ZM23.251 41.291C21.3662 41.2912 19.8401 42.8196 19.8398 44.708L19.8447 44.8838C19.9409 46.6859 21.4305 48.1199 23.251 48.1201C25.1358 48.1201 26.663 46.5866 26.6631 44.7031C26.6631 42.8201 25.1363 41.291 23.251 41.291ZM44.1211 41.291C43.7352 41.291 43.3618 41.3521 43.0156 41.4727L43.0146 41.4707C42.9946 41.4793 42.9765 41.4858 42.958 41.4912L42.959 41.4932C41.65 41.9689 40.7148 43.2302 40.7148 44.7031C40.7149 46.5907 42.2453 48.1178 44.124 48.1191C46.0075 48.1176 47.5331 46.5856 47.5332 44.7031C47.5332 42.8201 46.0064 41.291 44.1211 41.291ZM43.6982 39.1768C43.8419 39.166 43.9856 39.1611 44.127 39.1611C46.8197 39.1613 49.0639 41.0856 49.5596 43.6377H54.7002C54.8145 43.6376 54.9234 43.5923 55 43.5156C55.0766 43.439 55.122 43.3296 55.1221 43.2148V34.5059H48.0547C47.7706 34.5059 47.5009 34.3917 47.3027 34.1934C47.1045 33.9949 46.9902 33.7247 46.9902 33.4404V26.5195C46.9902 26.5124 46.991 26.5051 46.9912 26.498H43.6982V39.1768ZM14.3057 21.8799C14.1963 21.8799 14.0852 21.9274 14.0049 22.0078L14.001 22.0117L14 22.0107C13.9215 22.0863 13.878 22.1946 13.8779 22.3086V43.2148C13.8781 43.3244 13.9248 43.4353 14.0049 43.5156C14.0815 43.5924 14.1912 43.6377 14.3057 43.6377H17.8184C18.314 41.0856 20.5582 39.1613 23.251 39.1611C25.9439 39.1611 28.1889 41.0855 28.6846 43.6377H38.6943C39.0185 41.9581 40.104 40.5537 41.5713 39.7871V21.8799H14.3057ZM49.1182 26.5195V32.376H54.623L51.291 26.9209L51.2871 26.915C51.2613 26.8698 51.2359 26.8183 51.2158 26.7715L51.1836 26.708C51.149 26.6492 51.1066 26.6027 51.0566 26.5693C50.9851 26.5216 50.9032 26.498 50.8154 26.498H49.1172C49.1173 26.5052 49.1182 26.5124 49.1182 26.5195Z" fill="white" stroke="white" stroke-width="0.5"/>
<path fill-rule="evenodd" clip-rule="evenodd" d="M30.461 25.5573L25.9366 25.541C24.2874 25.541 22.9475 26.8721 22.9421 28.5182L22.9258 33.0546C22.9258 34.7062 24.2549 36.0481 25.8987 36.0535L30.4285 36.0698C32.0777 36.0752 33.4176 34.7442 33.4231 33.0926L33.4393 28.5617C33.4448 26.9101 32.1157 25.5682 30.4665 25.5627L30.461 25.5573ZM31.7902 33.0872C31.7902 33.8369 31.1771 34.4454 30.4285 34.44L25.9041 34.4237C25.1554 34.4237 24.5478 33.8098 24.5533 33.06L24.5695 28.5291C24.5695 27.7793 25.1826 27.1709 25.9312 27.1763H27.792V30.4794C27.792 30.9304 28.1554 31.2944 28.6057 31.2944C29.056 31.2944 29.4195 30.9304 29.4195 30.4794V27.1872H30.4556C31.2043 27.1926 31.8119 27.8065 31.8064 28.5562L31.7902 33.0926V33.0872Z" fill="white"/>
</svg>
